<?xml version="1.0" encoding="utf-8"?>
<!-- Generator: Adobe Illustrator 25.0.1, SVG Export Plug-In . SVG Version: 6.00 Build 0)  -->
<svg version="1.1" id="Layer_1" xmlns="http://www.w3.org/2000/svg" xmlns:xlink="http://www.w3.org/1999/xlink" x="0px" y="0px"
	 viewBox="0 0 216.2 228.6" style="enable-background:new 0 0 216.2 228.6;" xml:space="preserve">
<style type="text/css">
	.st0{fill:#FFA37B;}
	.st1{fill:#002475;}
</style>
<g>
	
		<image style="overflow:visible;opacity:0.75;" width="181" height="190" xlink:href="CA9EF818AD74DF26.png"  transform="matrix(1 0 0 1 23.9015 24.5015)">
	</image>
	<g>
		<g>
			<path class="st0" d="M71.8,46.4c1.6,4.8,3.1,9.6,4.3,14.5l-0.2-1c3.3,13.4,4.8,27.2,4.5,41c-0.4,17.3-3.6,34.4-9.7,50.6
				c-2.8,7.6-6.2,14.9-10.2,21.9l0.5-0.8c-3,5.4-6.3,10.5-9.9,15.5c-0.5,0.3-0.6,0.9-0.4,1.3c0.1,0.6,0.5,1.2,1.1,1.5
				c1.5,1.3,4.1,2.1,5.9,2.5c2.6,0.6,5.3,0.8,8,0.7l2.2-0.3c1.1-0.1,2-0.6,2.8-1.2c5-7,9.6-14.4,13.5-22.1
				c5.1-10,9.1-20.4,11.9-31.3c3.2-12.2,4.8-24.6,5-37.2c-0.1-10.3-1-20.6-2.9-30.7c-1.4-7.5-3.3-14.9-5.7-22.2
				c-0.2-0.6-0.4-1.3-0.6-1.9c-0.4-0.6-1-1.1-1.7-1.4c-0.8-0.6-1.8-1-2.8-1.3c-2.5-0.8-5.2-1.3-7.9-1.4C77.5,43,75,43,73.2,43.9
				l-1.1,0.7C71.5,45,71.3,45.8,71.8,46.4L71.8,46.4z"/>
			<path class="st1" d="M113.4,33c0.1-0.6,16-1.3,31.3,6.5c17.7,8.9,25.8,24.4,29.6,31.6c16.3,31.3,8.7,64.9,0.4,80.5
				c-1.8,3.5-4,6.7-6.7,9.6c-10.8,11.5-25.5,13.9-31,14.8c-2.8,0.4-5.7,0.6-8.5,0.7c-2.7,0.1-8.9,0.4-27.3-1.3
				c-4.7-0.4-9.5-0.7-14.2-1.2c-3.9-0.4-7.8-0.5-11.7-0.1c-1.9,0.1-3.8,0.6-5.7,1.2c-2,0.7-4.4,1.6-6.2,4c-1.2,1.6-2,3.4-2.2,5.4
				c-0.1,1.3-0.1,2.6,0.1,3.9c0.1,0.4,0.1,0.8,0.2,1.1c0,0.4,0,0.8-0.1,1.3c-0.1,0.8-0.4,1.4-0.9,2.1c-0.5,0.6-1.8,1-5.7-0.4
				c-2.8-1-5.4-2.5-7.8-4.3c-5.6-4.8-11.3-9.6-13.2-18.2c-0.3-1.3-3-14.5,4.7-22.1c7.5-7.4,21.1-5.8,27.8-5c0.8,0.1,5.1,0.6,11,1.2
				c0,0,3,0.3,5.3,0.4c8.5,0.5,19.6,1.1,32.5-2.5c6.6-1.8,15.6-4.3,24.2-12c4.5-4,8.1-8.6,11-13.9c11.3-20.9,3.4-42.7,2.5-45.9l0,0
				c-2.1-7.3-6.3-21.7-19-30.3C123.9,33.5,113.3,33.6,113.4,33z"/>
			<path class="st0" d="M31,66.1c-0.1,1.9,0.1,3.8,0.5,5.7c0.2,0.7,0.3,1.1,1.1,3.5c0.8,2.4,1.2,4,1.3,4.2
				c9.6,24.1,20.9,24.1,20.9,24.1c1.8,0,6.1-0.5,11.3-5.8c0,0,10.9-8.8,21.6-16C97.7,75,109,69.9,120.9,67
				c5.8-1.4,11.7-2.3,17.7-2.5c2.1-0.1,4.1,0.1,6.2,0.6c1.3,0.3,2.7,0.8,3.9,1.6c0.8,0.4,1.5,1.1,2.1,1.7c0.2,0.2,0.4,0.4,0.5,0.6
				c0.6,1,1.3,2,2,2.9c0.2,0.4,0.2-0.1,0.2-0.3c0-0.5,0-0.8,0-0.8c-0.1-0.6-0.1-1.1-0.1-1.2c-0.9-8.5-5.5-16.3-5.5-16.3
				c-2.9-5-6.9-9.5-11.5-12.9c-4.6-3.6-10-6.1-15.7-7.3c-2.8-0.6-5.8-0.8-8.7-0.8c-4.2,0-8.5,0.5-12.7,1.4
				C92,35.1,84.9,37.2,78,39.8C74.5,41.3,31.4,58.2,31,66.1z"/>
		</g>
	</g>
</g>
</svg>
