<?xml version="1.0" encoding="utf-8"?>
<!-- Generator: Adobe Illustrator 25.0.0, SVG Export Plug-In . SVG Version: 6.00 Build 0)  -->
<svg version="1.1" id="Layer_1" xmlns="http://www.w3.org/2000/svg" xmlns:xlink="http://www.w3.org/1999/xlink" x="0px" y="0px"
	 viewBox="0 0 4029.3 4029.3" style="enable-background:new 0 0 4029.3 4029.3;" xml:space="preserve">
<style type="text/css">
	.st0{fill:none;stroke:#0C183E;stroke-width:7.9213;stroke-miterlimit:10;}
	.st1{fill:#F0AF89;}
</style>
<line class="st0" x1="3549.1" y1="3505" x2="3840.4" y2="3796.3"/>
<line class="st0" x1="3382.5" y1="3519.4" x2="3673.8" y2="3810.6"/>
<line class="st0" x1="3184.3" y1="3505" x2="3475.6" y2="3796.3"/>
<line class="st0" x1="3012" y1="3510.8" x2="3303.2" y2="3802"/>
<line class="st0" x1="2836.7" y1="3513.6" x2="3127.9" y2="3804.9"/>
<line class="st0" x1="2670.1" y1="3512.1" x2="2961.4" y2="3803.3"/>
<line class="st0" x1="2471.9" y1="3513.6" x2="2763.1" y2="3804.9"/>
<line class="st0" x1="2299.5" y1="3511.4" x2="2590.8" y2="3802.7"/>
<line class="st0" x1="2112.4" y1="3502" x2="2403.6" y2="3793.2"/>
<line class="st0" x1="1945.7" y1="3516.4" x2="2237" y2="3807.6"/>
<line class="st0" x1="1747.5" y1="3502" x2="2038.7" y2="3793.2"/>
<line class="st0" x1="1575.1" y1="3507.7" x2="1866.4" y2="3798.9"/>
<line class="st0" x1="1399.9" y1="3510.6" x2="1691.2" y2="3801.9"/>
<line class="st0" x1="1233.3" y1="3509.1" x2="1524.5" y2="3800.3"/>
<line class="st0" x1="1055.5" y1="3510.6" x2="1346.8" y2="3801.9"/>
<line class="st0" x1="890" y1="3508.4" x2="1181.3" y2="3799.6"/>
<line class="st0" x1="737.3" y1="3510.6" x2="1028.5" y2="3801.9"/>
<line class="st0" x1="571.7" y1="3508.4" x2="863" y2="3799.6"/>
<line class="st0" x1="3552.7" y1="3357.3" x2="3844" y2="3648.6"/>
<line class="st0" x1="3552.7" y1="3191.6" x2="3844" y2="3482.8"/>
<line class="st0" x1="3556.4" y1="3033" x2="3847.6" y2="3324.3"/>
<line class="st0" x1="3559.9" y1="2885.3" x2="3851.2" y2="3176.6"/>
<line class="st0" x1="3559.9" y1="2719.6" x2="3851.2" y2="3010.8"/>
<line class="st0" x1="3545.1" y1="2552.6" x2="3836.3" y2="2843.9"/>
<line class="st0" x1="3548.7" y1="2404.9" x2="3840" y2="2696.2"/>
<line class="st0" x1="3548.7" y1="2239.2" x2="3840" y2="2530.4"/>
<line class="st0" x1="3552.3" y1="2080.6" x2="3843.6" y2="2371.9"/>
<line class="st0" x1="3555.9" y1="1932.9" x2="3847.1" y2="2224.2"/>
<line class="st0" x1="3555.9" y1="1767.2" x2="3847.1" y2="2058.4"/>
<line class="st0" x1="3549.1" y1="1588.3" x2="3840.4" y2="1879.6"/>
<line class="st0" x1="3552.7" y1="1440.6" x2="3844" y2="1731.9"/>
<line class="st0" x1="3552.7" y1="1274.9" x2="3844" y2="1566.1"/>
<line class="st0" x1="3556.4" y1="1116.3" x2="3847.6" y2="1407.6"/>
<line class="st0" x1="3559.9" y1="938.5" x2="3851.2" y2="1229.8"/>
<line class="st0" x1="3559.9" y1="748.7" x2="3851.2" y2="1039.9"/>
<line class="st0" x1="3557.2" y1="575.7" x2="3848.4" y2="866.9"/>
<rect x="131.3" y="173.8" class="st1" width="3019.1" height="2990.5"/>
<image style="overflow:visible;enable-background:new    ;" width="753" height="741" xlink:href="E5EB38769132BA0C.png"  transform="matrix(3.95 0 0 3.95 567.7622 570.6483)">
</image>
</svg>
